<?xml version="1.0" encoding="UTF-8"?>
<svg id="Logo_Only" data-name="Logo Only" xmlns="http://www.w3.org/2000/svg" viewBox="0 0 1080 1080">
  <defs>
    <style>
      .cls-1 {
        fill: #563777;
      }

      .cls-1, .cls-2, .cls-3 {
        fill-rule: evenodd;
      }

      .cls-2, .cls-4 {
        fill: #1a1a1a;
      }

      .cls-3 {
        fill: #e8a03f;
      }
    </style>
  </defs>
  <g id="Book">
    <g id="Book_Cover" data-name="Book Cover">
      <path id="main" class="cls-1" d="M800,710.5v15c0,9,0,8.5-9,8.5h-458c-8.28,0-15,7.21-15,15.5v37c0,8.28,6.72,14.5,15,14.5h351.78l-2.6,33h-357.18c-19.67,0-36.39-12.37-42.51-29.96-1.61-4.63-2.49-9.36-2.49-14.54v-43c0-5.18.88-10.41,2.49-15.04,6.12-17.59,22.84-30.46,42.51-30.46h466c4.97,0,9,4.53,9,9.5Z"/>
      <path id="rest" class="cls-1" d="M800,810.5v15c0,4.97-4.03,8.5-9,8.5h-47.18l-2.6-33h49.78c9,0,9,.5,9,9.5Z"/>
    </g>
    <g id="Pages_Bookmark" data-name="Pages &amp;amp; Bookmark">
      <polygon id="Bookmark" class="cls-2" points="736 862.45 713 849.17 690 862.45 699 748.5 727 748.5 736 862.45"/>
      <g id="Bottom_Page" data-name="Bottom Page">
        <path id="main-2" data-name="main" class="cls-2" d="M686.84,775l-.95,12h-348.97q-3.92,0-3.92-6t3.92-6h349.92Z"/>
        <polygon id="rest-2" data-name="rest" class="cls-4" points="787 775 787 787 740.11 787 739.16 775 787 775"/>
      </g>
      <g id="Top_Page" data-name="Top Page">
        <path id="main-3" data-name="main" class="cls-2" d="M688.97,748l-.95,12h-350.1c-3.97,0-4.92,0-4.92-6s.95-6,4.92-6h351.05Z"/>
        <polygon id="rest-3" data-name="rest" class="cls-2" points="787 748 787 760 737.98 760 737.03 748 787 748"/>
      </g>
    </g>
  </g>
  <g>
    <path class="cls-3" d="M784.8,400.92c-4.21.16-8.42.24-12.62.24-9.79,0-18.88-.44-27.24-1.31-13.95-21.83-19.34-46.92-23.41-74.73-20.24,7.79-46.83,15.82-74.87,18.24-9.65-9.57-19.24-19.71-28.42-29.83,36.93,3.32,75.95-9.36,100.48-19.6.57-5.5,2.44-11.42,5.64-17.11,8.73-15.5,24.09-23.39,34.31-17.63,10.21,5.75,11.42,22.98,2.69,38.47-3.15,5.6-7.17,10.19-11.49,13.52,5.33,39.36,10.65,67.76,34.93,89.74Z"/>
    <path class="cls-3" d="M461.72,313.54c-9.17,10.11-18.76,20.25-28.4,29.82-28.04-2.43-54.61-10.45-74.85-18.24-4.07,27.82-9.46,52.93-23.44,74.77-8.43.89-17.6,1.33-27.48,1.33-4.13,0-8.28-.08-12.43-.23,24.35-21.99,29.67-50.41,35.02-89.82-4.32-3.33-8.34-7.92-11.48-13.51-8.73-15.49-7.53-32.72,2.69-38.47,10.22-5.76,25.58,2.13,34.31,17.63,3.2,5.69,5.06,11.61,5.63,17.11,24.52,10.23,63.52,22.9,100.43,19.61Z"/>
    <path class="cls-3" d="M912.19,425.48c-9.17,9.17-19.95,14.95-29.88,16.84,0,0-75.25,220.22-77.45,226.65-2.6,7.7-7.93,14.02-23.43,14.02h-44.84l70.06-205.03c-42.11,3.31-116.4-16.02-151.54-32.35-33.47-15.55-89.11-55.06-115.14-92.31-26.03,37.25-81.67,76.85-115.14,92.4-35.14,16.33-109.44,35.55-151.55,32.26l70.06,205.03h-44.84c-15.5,0-20.83-6.32-23.43-14.02-2.16-6.33-51.64-151.18-77.45-226.8-9.91-1.9-20.67-7.62-29.81-16.76-17.96-17.97-22.92-42.1-11.08-53.95,11.85-11.84,36.01-6.87,53.98,11.1,7.33,7.33,12.5,15.71,15.24,23.85,48.67,8.35,125.76,15.79,165.74-10.7,40.82-27.05,91.93-85.87,122.24-123.11-2.72-6.89-4.29-14.96-4.29-23.58,0-25.41,13.58-46,30.33-46s30.33,20.59,30.33,46c0,8.62-1.56,16.68-4.28,23.57,30.35,37.26,81.52,96.14,122.23,123.12,39.98,26.49,117.12,19.03,165.81,10.67,2.74-8.13,7.9-16.48,15.23-23.81,17.97-17.97,42.13-22.92,53.98-11.08,11.84,11.85,6.88,36.01-11.08,53.98Z"/>
  </g>
</svg>