<?xml version="1.0" encoding="UTF-8"?>
<svg id="V_Logo_2T" data-name="V Logo 2T" xmlns="http://www.w3.org/2000/svg" viewBox="0 0 1080 1080">
  <defs>
    <style>
      .cls-1 {
        fill-rule: evenodd;
      }

      .cls-1, .cls-2 {
        fill: #f2f2f2;
      }

      .cls-3 {
        fill: #e8a03f;
      }
    </style>
  </defs>
  <rect class="cls-3" width="1080" height="1080"/>
  <g>
    <g>
      <path class="cls-2" d="M262.7,785.69v-157.83h63.64c13.83,0,25.33,1.59,34.5,4.78,9.17,3.19,16.04,8.71,20.63,16.55,4.58,7.85,6.88,18.85,6.88,32.99,0,11.35-1.83,20.83-5.48,28.44-3.65,7.62-9.06,13.52-16.2,17.72l20.75,57.35h-42.66l-15.85-47.79h-24.71v47.79h-41.5ZM304.19,704.56h23.31c4.51,0,8.12-.93,10.84-2.8,2.72-1.86,4.7-4.46,5.95-7.81,1.24-3.34,1.87-7.19,1.87-11.54,0-7.15-1.6-12.51-4.78-16.09-3.19-3.57-8.2-5.36-15.04-5.36h-22.15v43.6Z"/>
      <path class="cls-2" d="M457.59,788.49c-13.37,0-24.33-2.1-32.87-6.29-8.55-4.2-14.88-10.88-19-20.05-4.12-9.17-6.18-21.06-6.18-35.67s2.1-26.11,6.29-34.97c4.2-8.86,10.61-15.39,19.23-19.58,8.63-4.2,19.47-6.3,32.52-6.3s23.86,2.1,32.41,6.3c8.54,4.2,14.92,10.72,19.12,19.58,4.2,8.86,6.29,20.52,6.29,34.97s-2.02,26.5-6.06,35.67c-4.04,9.17-10.34,15.85-18.88,20.05-8.55,4.2-19.51,6.29-32.87,6.29ZM457.59,755.62c4.82,0,8.43-.93,10.84-2.8,2.41-1.86,4.08-4.97,5.01-9.33.93-4.35,1.4-10.02,1.4-17.02s-.55-12.74-1.63-16.78c-1.09-4.04-2.84-6.96-5.24-8.74-2.41-1.79-5.87-2.68-10.38-2.68s-8.01.89-10.49,2.68c-2.49,1.79-4.28,4.74-5.36,8.86-1.09,4.12-1.63,9.68-1.63,16.67s.47,12.67,1.4,17.02c.93,4.35,2.64,7.46,5.13,9.33,2.48,1.87,6.14,2.8,10.96,2.8Z"/>
      <path class="cls-2" d="M561.8,833.25l14.92-47.56h-30.07l-24.25-117.26h42.2l15.39,83.69h4.89l15.15-83.69h40.1l-34.74,164.82h-43.6Z"/>
      <path class="cls-2" d="M685.59,788.49c-13.21,0-23.08-3.11-29.61-9.32-6.53-6.21-9.79-15.85-9.79-28.91,0-9.33,1.75-16.47,5.25-21.45,3.5-4.97,8.59-8.47,15.27-10.49,6.68-2.02,14.69-3.26,24.01-3.73l23.55-1.63v-5.13c0-3.88-1.21-6.6-3.61-8.16-2.41-1.55-5.79-2.33-10.14-2.33-4.66,0-9.95.16-15.85.47-5.91.31-11.66.7-17.25,1.17-5.59.47-10.49.93-14.69,1.4l-1.16-27.74c4.35-1.08,9.52-2.17,15.5-3.26,5.98-1.09,12.24-1.98,18.77-2.68,6.53-.7,12.67-1.05,18.42-1.05,10.41,0,19.39,1.17,26.93,3.5,7.54,2.33,13.29,6.38,17.25,12.12,3.96,5.75,5.94,13.83,5.94,24.25v49.42c.47,1.4,1.51,2.56,3.15,3.5,1.63.93,3.38,1.56,5.25,1.87l-.7,26.34c-2.49.15-5.13.39-7.93.7-2.8.31-5.4.47-7.81.47s-4.39-.08-5.95-.23c-4.66-.16-8.55-1.05-11.66-2.68-3.11-1.63-5.36-3.22-6.76-4.78-2.33,1.09-5.44,2.29-9.33,3.61-3.89,1.32-8.16,2.45-12.82,3.38-4.66.93-9.41,1.4-14.22,1.4ZM695.85,760.05c2.33,0,4.62-.27,6.88-.81,2.25-.54,4.43-1.2,6.53-1.98,2.1-.78,3.77-1.48,5.01-2.1v-19.12l-17.02,1.63c-3.73.31-6.49,1.44-8.28,3.38-1.79,1.95-2.68,4.63-2.68,8.04s.78,6.1,2.33,8.04c1.55,1.95,3.96,2.91,7.23,2.91Z"/>
      <path class="cls-2" d="M777.21,785.69v-163.19h40.1v163.19h-40.1Z"/>
      <path class="cls-2" d="M370.57,909.11v-85.29h9.87v76.4h37.27v8.89h-47.15Z"/>
      <path class="cls-2" d="M428.09,833.83v-11.11h9.5v11.11h-9.5ZM428.09,909.11v-61.71h9.5v61.71h-9.5Z"/>
      <path class="cls-2" d="M476.09,910.35c-1.81,0-3.97-.06-6.48-.19-2.51-.12-5.04-.31-7.59-.56-2.55-.25-4.81-.45-6.79-.62v-88.37h9.63v29.75c1.31-.66,2.96-1.3,4.94-1.91,1.98-.62,4.09-1.15,6.36-1.6,2.26-.45,4.42-.68,6.48-.68,5.59,0,10.06,1.05,13.39,3.15,3.33,2.1,5.72,5.43,7.16,10,1.44,4.57,2.16,10.55,2.16,17.96,0,8.23-.88,14.75-2.65,19.56-1.77,4.81-4.77,8.27-9.01,10.37-4.24,2.1-10.1,3.15-17.59,3.15ZM475.97,901.71c5.59,0,9.77-.84,12.53-2.53,2.76-1.68,4.61-4.34,5.56-7.96.94-3.62,1.42-8.27,1.42-13.95,0-5.26-.41-9.54-1.23-12.83-.82-3.29-2.24-5.72-4.26-7.28-2.02-1.56-4.79-2.34-8.33-2.34-1.97,0-4.03.19-6.17.56-2.14.37-4.14.82-5.99,1.36-1.85.54-3.39,1.05-4.63,1.54v42.83c1.73.17,3.72.31,5.99.43,2.26.12,3.97.18,5.12.18Z"/>
      <path class="cls-2" d="M520.4,909.11v-61.71h9.5v8.27c1.56-1.07,3.54-2.24,5.92-3.52,2.38-1.28,5.02-2.49,7.9-3.64,2.88-1.15,5.76-1.98,8.64-2.47v9.75c-2.8.58-5.64,1.34-8.52,2.29-2.88.95-5.53,1.96-7.96,3.02-2.43,1.07-4.42,2.02-5.99,2.84v45.17h-9.5Z"/>
      <path class="cls-2" d="M576.68,910.35c-5.68,0-10-1.6-12.96-4.81-2.96-3.21-4.44-7.9-4.44-14.07,0-4.03.7-7.32,2.1-9.87,1.4-2.55,3.52-4.5,6.36-5.86,2.84-1.36,6.36-2.2,10.55-2.53l19.01-1.85v-5.31c0-4.2-.93-7.16-2.78-8.89-1.85-1.73-4.59-2.59-8.21-2.59-2.06,0-4.5.08-7.34.25-2.84.17-5.66.37-8.45.62-2.8.25-5.27.49-7.41.74l-.49-7.28c1.97-.41,4.36-.82,7.16-1.23,2.8-.41,5.72-.76,8.76-1.05,3.04-.29,5.84-.43,8.39-.43,4.69,0,8.52.72,11.48,2.16,2.96,1.44,5.12,3.62,6.48,6.54,1.36,2.92,2.04,6.65,2.04,11.17v31.23c.17,1.81.88,3.13,2.16,3.95,1.28.82,2.9,1.36,4.88,1.6l-.37,7.53c-1.15,0-2.26-.04-3.33-.12-1.07-.08-2.08-.23-3.02-.43-.95-.21-1.87-.43-2.78-.68-1.07-.41-2.08-.91-3.02-1.48-.95-.58-1.87-1.28-2.78-2.1-1.56.66-3.56,1.36-5.99,2.1-2.43.74-5.02,1.38-7.78,1.91-2.76.53-5.49.8-8.21.8ZM578.29,902.32c2.22,0,4.52-.2,6.91-.62,2.38-.41,4.65-.91,6.79-1.48,2.14-.57,3.91-1.11,5.31-1.6v-20.12l-17.9,1.73c-3.7.33-6.36,1.4-7.96,3.21-1.6,1.81-2.41,4.4-2.41,7.78s.78,6.17,2.35,8.15c1.56,1.97,3.87,2.96,6.91,2.96Z"/>
      <path class="cls-2" d="M625.19,909.11v-61.71h9.5v8.27c1.56-1.07,3.54-2.24,5.92-3.52,2.39-1.28,5.02-2.49,7.9-3.64,2.88-1.15,5.76-1.98,8.64-2.47v9.75c-2.8.58-5.64,1.34-8.52,2.29-2.88.95-5.54,1.96-7.96,3.02-2.43,1.07-4.42,2.02-5.99,2.84v45.17h-9.5Z"/>
      <path class="cls-2" d="M680.85,936.39l8.02-27.28h-9.26l-17.4-61.71h9.63l15.06,53.44h4.2l15.18-53.44h9.63l-25.43,88.99h-9.63Z"/>
    </g>
    <g>
      <g id="Book">
        <g id="Book_Cover" data-name="Book Cover">
          <path id="main" class="cls-1" d="M722,508.17v10.5c0,6.3,0,6.33-6.3,6.33h-320.6c-5.8,0-10.1,4.67-10.1,10.47v25.9c0,5.8,4.3,10.63,10.1,10.63h246.25l-1.82,23h-250.03c-13.77,0-25.47-8.85-29.76-21.16-1.13-3.24-1.74-6.74-1.74-10.37v-30.1c0-3.63.62-7.05,1.74-10.29,4.28-12.31,15.99-21.08,29.76-21.08h326.2c3.48,0,6.3,2.69,6.3,6.17Z"/>
          <path id="rest" class="cls-1" d="M722,578.17v10.5c0,3.48-2.82,6.33-6.3,6.33h-33.03l-1.82-23h34.85c6.3,0,6.3-.13,6.3,6.17Z"/>
        </g>
        <g id="Pages_Bookmark" data-name="Pages &amp;amp; Bookmark">
          <polygon id="Bookmark" class="cls-1" points="677.2 614.53 661.1 605.24 645 614.53 651.3 534.77 670.9 534.77 677.2 614.53"/>
          <g id="Bottom_Page" data-name="Bottom Page">
            <path id="main-2" data-name="main" class="cls-1" d="M642.79,553l-.67,9h-244.28q-2.84,0-2.84-4.5t2.84-4.5h244.94Z"/>
            <polygon id="rest-2" data-name="rest" class="cls-2" points="713 553 713 562 680.08 562 679.41 553 713 553"/>
          </g>
          <g id="Top_Page" data-name="Top Page">
            <path id="main-3" data-name="main" class="cls-1" d="M643.28,534l-.66,9h-245.07q-2.54,0-2.54-4.5t2.54-4.5h245.73Z"/>
            <polygon id="rest-3" data-name="rest" class="cls-1" points="713 534 713 543 678.59 543 677.92 534 713 534"/>
          </g>
        </g>
      </g>
      <g>
        <path class="cls-1" d="M711.36,291.47c-2.95.11-5.89.17-8.83.17-6.85,0-13.22-.31-19.07-.92-9.76-15.28-13.54-32.84-16.39-52.31-14.17,5.45-32.78,11.07-52.41,12.77-6.76-6.7-13.47-13.8-19.89-20.88,25.85,2.32,53.16-6.55,70.34-13.72.4-3.85,1.71-7.99,3.95-11.98,6.11-10.85,16.86-16.37,24.02-12.34,7.15,4.02,7.99,16.09,1.88,26.93-2.2,3.92-5.02,7.13-8.04,9.46,3.73,27.55,7.45,47.43,24.45,62.82Z"/>
        <path class="cls-1" d="M485.2,230.3c-6.42,7.08-13.13,14.18-19.88,20.87-19.63-1.7-38.23-7.32-52.39-12.77-2.85,19.47-6.62,37.05-16.41,52.34-5.9.62-12.32.93-19.24.93-2.89,0-5.8-.06-8.7-.16,17.04-15.39,20.77-35.29,24.51-62.87-3.02-2.33-5.84-5.54-8.04-9.46-6.11-10.84-5.27-22.9,1.88-26.93,7.15-4.03,17.91,1.49,24.02,12.34,2.24,3.98,3.54,8.13,3.94,11.98,17.16,7.16,44.46,16.03,70.3,13.73Z"/>
        <path class="cls-1" d="M800.53,308.66c-6.42,6.42-13.96,10.47-20.92,11.79,0,0-52.68,154.2-54.22,158.7-1.82,5.39-5.55,9.86-16.4,9.86h-31.39l49.04-143.56c-29.48,2.32-81.48-11.23-106.08-22.66-23.43-10.88-62.38-38.55-80.6-64.63-18.22,26.08-57.17,53.79-80.6,64.68-24.6,11.43-76.61,24.92-106.09,22.62l49.04,143.56h-31.39c-10.85,0-14.58-4.47-16.4-9.86-1.51-4.43-36.15-105.84-54.22-158.78-6.94-1.33-14.47-5.34-20.87-11.74-12.57-12.58-16.04-29.47-7.76-37.77,8.3-8.29,25.21-4.81,37.79,7.76,5.13,5.13,8.75,10.99,10.67,16.69,34.07,5.85,88.03,11.06,116.02-7.49,28.57-18.94,64.35-60.11,85.57-86.18-1.9-4.82-3-10.47-3-16.51,0-17.79,9.51-32.2,21.23-32.2s21.23,14.41,21.23,32.2c0,6.03-1.09,11.68-3,16.5,21.25,26.08,57.06,67.3,85.56,86.18,27.99,18.54,81.98,13.32,116.07,7.47,1.92-5.69,5.53-11.54,10.66-16.67,12.58-12.58,29.49-16.04,37.79-7.76,8.29,8.3,4.82,25.21-7.76,37.79Z"/>
      </g>
    </g>
  </g>
</svg>