<?xml version="1.0" encoding="UTF-8"?>
<svg id="H_Logo_2T" data-name="H Logo 2T" xmlns="http://www.w3.org/2000/svg" viewBox="0 0 1080 1080">
  <defs>
    <style>
      .cls-1 {
        fill: #563777;
      }

      .cls-1, .cls-2, .cls-3 {
        fill-rule: evenodd;
      }

      .cls-2, .cls-4 {
        fill: #1a1a1a;
      }

      .cls-5 {
        fill: #f2f2f2;
      }

      .cls-3 {
        fill: #e8a03f;
      }
    </style>
  </defs>
  <rect class="cls-5" width="1080" height="1080"/>
  <g>
    <g>
      <path class="cls-4" d="M566.11,573.22v-119.48h46.71c9.56,0,17.58,1.22,24.05,3.67,6.47,2.45,11.31,6.53,14.52,12.24,3.21,5.71,4.81,13.47,4.81,23.27,0,8.63-1.55,15.89-4.64,21.78-3.09,5.89-7.79,10.23-14.08,13.03l18.72,45.48h-25.37l-15.74-40.06h-24.84v40.06h-24.14ZM590.25,513.39h23.09c4.43,0,7.99-.84,10.67-2.54,2.68-1.69,4.61-4.08,5.77-7.17,1.16-3.09,1.75-6.62,1.75-10.58,0-6.53-1.52-11.43-4.55-14.69-3.03-3.26-7.76-4.9-14.17-4.9h-22.57v39.88Z"/>
      <path class="cls-4" d="M708.68,575.14c-9.91,0-17.87-1.63-23.88-4.9-6.01-3.26-10.35-8.31-13.03-15.13-2.68-6.82-4.02-15.66-4.02-26.5s1.4-19.04,4.2-25.63c2.8-6.59,7.23-11.49,13.29-14.69,6.06-3.21,13.88-4.81,23.44-4.81s17.52,1.6,23.53,4.81c6,3.21,10.43,8.11,13.29,14.69,2.86,6.59,4.29,15.13,4.29,25.63s-1.34,19.68-4.02,26.5c-2.68,6.82-7.03,11.87-13.03,15.13-6.01,3.26-14.02,4.9-24.05,4.9ZM708.68,555.9c4.9,0,8.57-.9,11.02-2.71,2.45-1.81,4.11-4.72,4.98-8.75.88-4.02,1.31-9.3,1.31-15.83s-.53-11.51-1.58-15.31c-1.05-3.79-2.8-6.5-5.25-8.13-2.45-1.63-5.95-2.45-10.5-2.45s-7.9.82-10.41,2.45c-2.51,1.63-4.29,4.35-5.34,8.13-1.05,3.79-1.58,8.89-1.58,15.31s.44,11.81,1.31,15.83c.87,4.02,2.54,6.94,4.99,8.75,2.45,1.81,6.12,2.71,11.02,2.71Z"/>
      <path class="cls-4" d="M785.82,610.13l11.19-36.91h-18.72l-20.82-87.81h24.32l15.57,68.05h4.55l15.57-68.05h23.44l-30.26,124.72h-24.84Z"/>
      <path class="cls-4" d="M875.38,575.14c-9.1,0-15.95-2.3-20.55-6.91-4.61-4.61-6.91-11.57-6.91-20.9,0-6.53,1.17-11.63,3.5-15.31,2.33-3.67,5.8-6.35,10.41-8.05,4.61-1.69,10.23-2.71,16.88-3.06l21.34-1.92v-5.25c0-4.2-1.05-7.14-3.15-8.83-2.1-1.69-5.19-2.54-9.27-2.54-3.27,0-7.03.12-11.28.35-4.26.23-8.46.53-12.59.87-4.14.35-7.73.7-10.76,1.05l-.7-16.44c3.03-.7,6.68-1.43,10.93-2.19,4.26-.76,8.72-1.37,13.38-1.84,4.66-.46,8.98-.7,12.94-.7,7.46,0,13.7.93,18.72,2.8,5.01,1.87,8.8,4.93,11.37,9.18,2.56,4.26,3.85,10,3.85,17.23v40.06c.23,1.63,1.11,2.89,2.62,3.76,1.51.88,3.26,1.49,5.25,1.84l-.52,16.09c-1.87,0-3.7.03-5.51.09-1.81.06-3.53.06-5.16,0-1.63-.06-3.09-.21-4.37-.44-2.68-.35-4.99-1.05-6.91-2.1-1.92-1.05-3.47-2.16-4.64-3.32-1.87.82-4.37,1.75-7.52,2.8-3.15,1.05-6.56,1.92-10.23,2.62-3.67.7-7.38,1.05-11.11,1.05ZM880.98,557.82c2.21,0,4.55-.23,7-.7,2.45-.46,4.75-1.02,6.91-1.66,2.16-.64,3.88-1.25,5.16-1.84v-20.12l-17.84,1.57c-3.85.35-6.62,1.49-8.31,3.41-1.69,1.92-2.54,4.63-2.54,8.13s.79,6.24,2.36,8.22c1.57,1.98,3.99,2.97,7.26,2.97Z"/>
      <path class="cls-4" d="M944.65,573.22v-123.67h23.26v123.67h-23.26Z"/>
      <path class="cls-4" d="M566.11,693.48v-90.66h10.5v81.21h39.62v9.45h-50.12Z"/>
      <path class="cls-4" d="M627.24,613.45v-11.81h10.1v11.81h-10.1ZM627.24,693.48v-65.6h10.1v65.6h-10.1Z"/>
      <path class="cls-4" d="M678.28,694.79c-1.92,0-4.22-.07-6.89-.2-2.67-.13-5.36-.33-8.07-.59-2.71-.26-5.12-.48-7.22-.66v-93.94h10.23v31.62c1.4-.7,3.15-1.38,5.25-2.03,2.1-.66,4.35-1.22,6.76-1.71,2.4-.48,4.7-.72,6.89-.72,5.95,0,10.69,1.12,14.23,3.35,3.54,2.23,6.08,5.77,7.61,10.63,1.53,4.85,2.3,11.22,2.3,19.09,0,8.75-.94,15.68-2.82,20.8-1.88,5.12-5.07,8.79-9.58,11.02-4.51,2.23-10.74,3.34-18.7,3.34ZM678.15,685.61c5.95,0,10.39-.89,13.32-2.69,2.93-1.79,4.9-4.61,5.9-8.46,1-3.85,1.51-8.79,1.51-14.83,0-5.6-.44-10.14-1.31-13.64-.88-3.5-2.38-6.08-4.53-7.74-2.14-1.66-5.1-2.49-8.86-2.49-2.1,0-4.29.2-6.56.59-2.28.39-4.4.87-6.36,1.44-1.97.57-3.61,1.12-4.92,1.64v45.52c1.84.18,3.96.33,6.36.46,2.4.13,4.22.2,5.44.2Z"/>
      <path class="cls-4" d="M725.38,693.48v-65.6h10.1v8.79c1.66-1.13,3.76-2.38,6.3-3.74,2.54-1.35,5.33-2.64,8.4-3.87,3.06-1.22,6.12-2.1,9.18-2.62v10.37c-2.97.61-5.99,1.42-9.05,2.43-3.06,1.01-5.88,2.08-8.46,3.21-2.58,1.14-4.7,2.14-6.36,3.02v48.02h-10.1Z"/>
      <path class="cls-4" d="M785.2,694.79c-6.04,0-10.63-1.71-13.78-5.12-3.15-3.41-4.72-8.4-4.72-14.96,0-4.28.74-7.78,2.23-10.5,1.49-2.71,3.74-4.79,6.76-6.23,3.02-1.44,6.76-2.34,11.22-2.69l20.2-1.97v-5.64c0-4.46-.98-7.61-2.95-9.45-1.97-1.84-4.88-2.76-8.72-2.76-2.19,0-4.79.09-7.81.26-3.02.18-6.02.39-8.99.66-2.97.26-5.6.53-7.87.79l-.52-7.74c2.1-.44,4.63-.87,7.61-1.31,2.97-.44,6.08-.81,9.31-1.12,3.23-.31,6.21-.46,8.92-.46,4.99,0,9.05.77,12.2,2.3,3.15,1.53,5.44,3.85,6.89,6.95,1.44,3.1,2.17,7.06,2.17,11.87v33.19c.17,1.92.94,3.33,2.29,4.2,1.36.88,3.08,1.44,5.18,1.71l-.39,8c-1.23,0-2.41-.04-3.54-.13-1.14-.09-2.21-.24-3.21-.46-1.01-.22-1.99-.46-2.95-.72-1.14-.44-2.21-.96-3.21-1.57-1.01-.61-1.99-1.36-2.95-2.23-1.66.7-3.78,1.44-6.36,2.23-2.58.79-5.34,1.47-8.26,2.03-2.93.57-5.84.85-8.72.85ZM786.91,686.26c2.36,0,4.81-.22,7.35-.66,2.54-.44,4.94-.96,7.21-1.57,2.27-.61,4.15-1.18,5.64-1.71v-21.38l-19.02,1.84c-3.94.35-6.76,1.49-8.46,3.41-1.71,1.93-2.56,4.68-2.56,8.27s.83,6.56,2.49,8.66c1.66,2.1,4.11,3.15,7.35,3.15Z"/>
      <path class="cls-4" d="M836.76,693.48v-65.6h10.1v8.79c1.66-1.13,3.76-2.38,6.3-3.74,2.54-1.35,5.33-2.64,8.4-3.87,3.06-1.22,6.12-2.1,9.18-2.62v10.37c-2.97.61-5.99,1.42-9.05,2.43-3.06,1.01-5.88,2.08-8.46,3.21-2.58,1.14-4.7,2.14-6.36,3.02v48.02h-10.1Z"/>
      <path class="cls-4" d="M895.93,722.47l8.53-28.99h-9.84l-18.5-65.6h10.23l16,56.81h4.46l16.14-56.81h10.23l-27.03,94.59h-10.23Z"/>
    </g>
    <g>
      <g id="Book">
        <g id="Book_Cover" data-name="Book Cover">
          <path id="main" class="cls-1" d="M463,631.56v8.1c0,4.86-.07,4.34-4.93,4.34h-247.32c-4.47,0-7.75,4.15-7.75,8.62v19.98c0,4.47,3.27,8.4,7.75,8.4h189.96l-1.4,17h-192.88c-10.62,0-19.71-6.56-23.02-16.06-.87-2.5-1.41-4.93-1.41-7.73v-23.22c0-2.8.54-5.33,1.41-7.84,3.3-9.5,12.4-16.16,23.02-16.16h251.64c2.68,0,4.93,1.87,4.93,4.56Z"/>
          <path id="rest" class="cls-1" d="M463,685.56v8.1c0,2.68-2.25,4.34-4.93,4.34h-25.48l-1.4-17h26.88c4.86,0,4.93-.3,4.93,4.56Z"/>
        </g>
        <g id="Pages_Bookmark" data-name="Pages &amp;amp; Bookmark">
          <polygon id="Bookmark" class="cls-2" points="428.37 713.61 415.95 706.44 403.53 713.61 408.39 652.08 423.51 652.08 428.37 713.61"/>
          <g id="Bottom_Page" data-name="Bottom Page">
            <path id="main-2" data-name="main" class="cls-2" d="M401.82,667l-.51,6h-188.44q-1.86,0-1.86-3t1.86-3h188.96Z"/>
            <polygon id="rest-2" data-name="rest" class="cls-4" points="455 667 455 673 430.59 673 430.07 667 455 667"/>
          </g>
          <g id="Top_Page" data-name="Top Page">
            <path id="main-3" data-name="main" class="cls-2" d="M402.97,653l-.51,6h-189.05q-2.4,0-2.4-3t2.4-3h189.57Z"/>
            <polygon id="rest-3" data-name="rest" class="cls-2" points="455 653 455 659 429.44 659 428.92 653 455 653"/>
          </g>
        </g>
      </g>
      <g>
        <path class="cls-3" d="M454.72,464.39c-2.27.09-4.55.13-6.81.13-5.29,0-10.2-.24-14.71-.71-7.53-11.79-10.44-25.34-12.64-40.35-10.93,4.21-25.29,8.54-40.43,9.85-5.21-5.17-10.39-10.64-15.35-16.11,19.94,1.79,41.01-5.05,54.26-10.58.31-2.97,1.32-6.17,3.05-9.24,4.71-8.37,13.01-12.63,18.53-9.52,5.51,3.11,6.17,12.41,1.45,20.77-1.7,3.02-3.87,5.5-6.2,7.3,2.88,21.25,5.75,36.59,18.86,48.46Z"/>
        <path class="cls-3" d="M280.25,417.2c-4.95,5.46-10.13,10.94-15.34,16.1-15.14-1.31-29.49-5.64-40.42-9.85-2.2,15.02-5.11,28.58-12.66,40.38-4.55.48-9.5.72-14.84.72-2.23,0-4.47-.04-6.71-.12,13.15-11.87,16.02-27.22,18.91-48.5-2.33-1.8-4.5-4.28-6.2-7.3-4.71-8.36-4.07-17.67,1.45-20.77,5.52-3.11,13.81,1.15,18.53,9.52,1.73,3.07,2.73,6.27,3.04,9.24,13.24,5.52,34.3,12.37,54.23,10.59Z"/>
        <path class="cls-3" d="M523.51,477.65c-4.95,4.95-10.77,8.07-16.14,9.09,0,0-40.63,119.07-41.82,122.54-1.4,4.16-4.28,7.72-12.65,7.72h-24.21l37.83-110.86c-22.74,1.79-62.86-8.72-81.83-17.54-18.07-8.4-48.12-29.77-62.18-49.88-14.06,20.12-44.1,41.48-62.18,49.88-18.98,8.82-59.1,19.33-81.84,17.56l37.83,110.85h-24.21c-8.37,0-11.25-3.56-12.65-7.72-1.17-3.42-27.89-81.71-41.82-122.54-5.35-1.03-11.16-4.15-16.1-9.09-9.7-9.7-12.38-22.75-5.98-29.15,6.4-6.39,19.45-3.72,29.15,5.98,3.96,3.96,6.75,8.48,8.23,12.87,26.28,4.51,67.91,8.53,89.5-5.78,22.04-14.61,49.64-46.37,66.01-66.48-1.47-3.72-2.32-8.08-2.32-12.73,0-13.72,7.33-24.84,16.38-24.84s16.38,11.12,16.38,24.84c0,4.65-.84,9.01-2.31,12.73,16.39,20.12,44.02,51.92,66,66.48,21.59,14.3,63.24,10.28,89.54,5.76,1.48-4.39,4.27-8.9,8.22-12.86,9.7-9.7,22.75-12.38,29.15-5.98,6.39,6.4,3.71,19.44-5.98,29.15Z"/>
      </g>
    </g>
  </g>
</svg>